<svg xmlns="http://www.w3.org/2000/svg" xmlns:xlink="http://www.w3.org/1999/xlink" viewBox="0 0 124.21 142.79"><defs><style>.cls-1,.cls-6{fill:#3c4150;}.cls-2{fill:none;stroke-miterlimit:10;}.cls-2,.cls-6{stroke:#3c4150;}.cls-3,.cls-6{opacity:0.1;}.cls-4{fill:#3b4e5d;}.cls-5{fill:url(#linear-gradient);}.cls-6{stroke-linecap:round;stroke-width:3px;}.cls-6,.cls-7{stroke-linejoin:round;}.cls-7{stroke-width:4px;fill:url(#linear-gradient-2);stroke:url(#linear-gradient-3);}</style><linearGradient id="linear-gradient" x1="61.82" x2="61.82" y2="106.51" gradientUnits="userSpaceOnUse"><stop offset="0.47" stop-color="#2be6ef"/><stop offset="0.53" stop-color="#2cd9e2"/><stop offset="0.64" stop-color="#30b6c0"/><stop offset="0.79" stop-color="#367d8a"/><stop offset="0.93" stop-color="#3c4150"/></linearGradient><linearGradient id="linear-gradient-2" x1="61.82" y1="18.51" x2="61.82" y2="97.51" gradientUnits="userSpaceOnUse"><stop offset="0.04" stop-color="#fff"/><stop offset="0.09" stop-color="#f9feff"/><stop offset="0.16" stop-color="#e8fcfd"/><stop offset="0.23" stop-color="#cbf9fb"/><stop offset="0.32" stop-color="#a3f4f8"/><stop offset="0.41" stop-color="#70eef4"/><stop offset="0.5" stop-color="#33e7f0"/><stop offset="0.52" stop-color="#2be6ef"/><stop offset="0.58" stop-color="#2cd9e2"/><stop offset="0.69" stop-color="#30b6c1"/><stop offset="0.84" stop-color="#367f8c"/><stop offset="0.99" stop-color="#3c4150"/></linearGradient><linearGradient id="linear-gradient-3" x1="61.82" y1="16.51" x2="61.82" y2="99.51" gradientUnits="userSpaceOnUse"><stop offset="0" stop-color="#fff"/><stop offset="0.07" stop-color="#fafeff"/><stop offset="0.15" stop-color="#edfdfe"/><stop offset="0.24" stop-color="#d6fafc"/><stop offset="0.33" stop-color="#b7f6fa"/><stop offset="0.42" stop-color="#8ef2f6"/><stop offset="0.51" stop-color="#5decf3"/><stop offset="0.59" stop-color="#2be6ef"/><stop offset="0.98" stop-color="#3c4150"/></linearGradient></defs><g id="Layer_2" data-name="Layer 2"><g id="DEFAULT"><g id="ADONIS_Typo"><path class="cls-1" d="M1,142.41l2.63-6.81,4.18-10.82,1-2.53h-1l2.65,6.82,4.2,10.82,1,2.52c.23.6,1.2.34,1-.26L14,135.33,9.76,124.51l-1-2.52a.51.51,0,0,0-1,0l-2.63,6.82L1,139.63l-1,2.52c-.24.6.73.86,1,.26Z"/><path class="cls-1" d="M25.76,122.12v20.16a.51.51,0,0,0,.5.5c4.16,0,9-1.66,11.29-5.29A11.07,11.07,0,0,0,38,127.21a10,10,0,0,0-6.49-5,15.71,15.71,0,0,0-5.28-.62c-.64,0-.64,1,0,1,3.62-.24,8.07.89,10.25,4a9.91,9.91,0,0,1,.59,9.65A9.87,9.87,0,0,1,31,141a15.51,15.51,0,0,1-4.78.8l.5.5V122.12A.5.5,0,0,0,25.76,122.12Z"/><path class="cls-1" d="M55.57,141.78a5.87,5.87,0,0,1-4.64-2,7.73,7.73,0,0,1-1.53-4.54,49.55,49.55,0,0,1,0-6,8.86,8.86,0,0,1,1.38-4.45,5.41,5.41,0,0,1,4.1-2.15A6.24,6.24,0,0,1,59.73,124c2.46,2.35,2,6.45,2,9.52a9.81,9.81,0,0,1-1.23,5.57,5.8,5.8,0,0,1-5,2.7.5.5,0,0,0,0,1,6.74,6.74,0,0,0,5.16-2.32,8.81,8.81,0,0,0,2-5c.09-1.09,0-2.2,0-3.29s0-2.14-.08-3.21A9.48,9.48,0,0,0,61.08,124c-2.23-3-7.35-3.25-10.13-.89-3,2.55-2.58,7.12-2.57,10.64,0,2.24.22,4.48,1.59,6.34a6.81,6.81,0,0,0,5.6,2.66A.5.5,0,0,0,55.57,141.78Z"/><path class="cls-1" d="M74.76,142.3V122l-.93.26,4.07,6.88L84.34,140l1.49,2.52a.5.5,0,0,0,.93-.25V122.11a.5.5,0,0,0-1,0V142.3l.93-.26-4.06-6.88-6.45-10.92-1.49-2.52a.5.5,0,0,0-.93.25V142.3a.5.5,0,0,0,1,0Z"/><path class="cls-1" d="M98.76,122.11V142.3a.5.5,0,0,0,1,0V122.11a.5.5,0,0,0-1,0Z"/><path class="cls-1" d="M123,124c-1-1.6-3-2.3-4.78-2.51a6.55,6.55,0,0,0-5.35,1.6,5.71,5.71,0,0,0-1.52,5.29,4.79,4.79,0,0,0,3.24,3.44c1.83.65,3.79.25,5.63.81a4,4,0,0,1,3,3.94,4.41,4.41,0,0,1-2.59,4.34,7.73,7.73,0,0,1-5.58.12,4.6,4.6,0,0,1-2.86-4.61c0-.64-1-.64-1,0a5.73,5.73,0,0,0,1.76,4.48,6.86,6.86,0,0,0,4.57,1.56,7.31,7.31,0,0,0,5-1.62,5.69,5.69,0,0,0,1.6-5.09,4.89,4.89,0,0,0-3-3.84c-1.83-.77-3.77-.39-5.64-.86a3.93,3.93,0,0,1-3.29-3.59,4.65,4.65,0,0,1,3.64-4.88c2-.47,5.12,0,6.27,1.92.33.55,1.2,0,.86-.5Z"/><line class="cls-2" x1="12.76" y1="134.01" x2="3.76" y2="134.01"/></g><g id="Shadow" class="cls-3"><path class="cls-4" d="M66.5,1.05c-.69-1.4-1.83-1.4-2.53,0L12.62,104a1.62,1.62,0,0,0,1.57,2.54h102.1a1.62,1.62,0,0,0,1.57-2.54Z"/></g><g id="ExtTriangle"><path class="cls-5" d="M63.08,1.05c-.69-1.4-1.83-1.4-2.53,0L9.2,104a1.62,1.62,0,0,0,1.57,2.54h102.1a1.62,1.62,0,0,0,1.57-2.54Z"/></g><polygon id="IntShd" class="cls-6" points="61.94 10.18 23.07 96.01 100.31 95.75 61.94 10.18"/><polygon id="IntTriangle" class="cls-7" points="61.82 18.51 23.33 97.51 100.31 97.51 61.82 18.51"/></g></g></svg>