<?xml version="1.0" encoding="UTF-8"?>
<svg id="testA_copia" data-name="testA copia" xmlns="http://www.w3.org/2000/svg" xmlns:xlink="http://www.w3.org/1999/xlink" viewBox="0 0 298.67 261.33">
  <defs>
    <style>
      .cls-1 {
        fill: url(#linear-gradient);
      }

      .cls-1, .cls-2, .cls-3, .cls-4, .cls-5 {
        stroke-width: 0px;
      }

      .cls-2 {
        fill: #3b4e5d;
      }

      .cls-3 {
        fill: #3c4150;
      }

      .cls-4 {
        fill: url(#linear-gradient-2);
      }

      .cls-5 {
        fill: url(#linear-gradient-3);
      }

      .cls-6 {
        opacity: .1;
      }
    </style>
    <linearGradient id="linear-gradient" x1="150.53" y1="28.34" x2="150.53" y2="223.23" gradientUnits="userSpaceOnUse">
      <stop offset=".47" stop-color="#2be6ef"/>
      <stop offset=".53" stop-color="#2cd8e2"/>
      <stop offset=".64" stop-color="#2fb5c0"/>
      <stop offset=".79" stop-color="#357d8a"/>
      <stop offset=".93" stop-color="#3c4150"/>
    </linearGradient>
    <linearGradient id="linear-gradient-2" x1="150.53" y1="62.53" x2="150.53" y2="206.86" gradientUnits="userSpaceOnUse">
      <stop offset=".04" stop-color="#fff"/>
      <stop offset=".09" stop-color="#f2fdfe"/>
      <stop offset=".18" stop-color="#d3f9fb"/>
      <stop offset=".31" stop-color="#9ff3f7"/>
      <stop offset=".46" stop-color="#58ebf2"/>
      <stop offset=".54" stop-color="#2be6ef"/>
      <stop offset=".6" stop-color="#2cd8e2"/>
      <stop offset=".71" stop-color="#2fb6c1"/>
      <stop offset=".85" stop-color="#357e8b"/>
      <stop offset=".99" stop-color="#3c4150"/>
    </linearGradient>
    <linearGradient id="linear-gradient-3" x1="150.49" y1="60.53" x2="150.49" y2="208.86" gradientUnits="userSpaceOnUse">
      <stop offset="0" stop-color="#fff"/>
      <stop offset=".07" stop-color="#fafefe"/>
      <stop offset=".15" stop-color="#ecfcfd"/>
      <stop offset=".24" stop-color="#d6fafb"/>
      <stop offset=".33" stop-color="#b6f6f9"/>
      <stop offset=".42" stop-color="#8ef1f6"/>
      <stop offset=".51" stop-color="#5debf2"/>
      <stop offset=".59" stop-color="#2be6ef"/>
      <stop offset=".98" stop-color="#3c4150"/>
    </linearGradient>
  </defs>
  <g id="Shadow" class="cls-6">
    <path class="cls-2" d="m159.23,29.35c-.79-1.35-2.07-1.35-2.86,0L44.71,220.78c-.79,1.35-.15,2.45,1.41,2.45h223.38c1.56,0,2.19-1.1,1.41-2.45L159.23,29.35Z"/>
  </g>
  <g id="ExtTriangle">
    <path class="cls-1" d="m151.96,29.35c-.79-1.35-2.07-1.35-2.86,0L37.44,220.78c-.79,1.35-.15,2.45,1.41,2.45h223.38c1.56,0,2.19-1.1,1.41-2.45L151.96,29.35Z"/>
  </g>
  <g id="IntShd" class="cls-6">
    <path class="cls-3" d="m153.39,49.66c-1.42-2.78-3.76-2.78-5.19-.01l-77.4,149.59c-1.43,2.77-.05,5.03,3.06,5.02l152.81-.43c3.12,0,4.51-2.29,3.08-5.06L153.39,49.66Z"/>
  </g>
  <g id="IntTriangle">
    <path class="cls-4" d="m153.28,64.58c-1.51-2.73-3.99-2.73-5.51,0l-76.3,137.33c-1.51,2.73-.2,4.96,2.92,4.96h152.27c3.12,0,4.43-2.23,2.92-4.96l-76.3-137.33Z"/>
    <path class="cls-5" d="m153.28,64.58c-.32-.55-.7-1.07-1.21-1.46-.49-.4-1.13-.63-1.77-.56-.64.06-1.21.41-1.65.85-.45.45-.78,1-1.08,1.56l-3.69,6.68-7.38,13.36-14.65,26.78-29.02,53.71-14.5,26.86-3.62,6.72-1.81,3.36c-.56.96-.63,1.78-.38,2.16.18.38.92.7,1.92.68l3.82-.05,7.63-.07,30.52-.21,30.52-.08,30.52.07,30.52.2,15.26.16,1.91.02h.95c.33.02.65.02.85,0,.47-.02.89-.12,1.18-.28.29-.16.45-.34.54-.59.09-.25.1-.61-.01-1.03-.11-.42-.32-.82-.65-1.43l-1.81-3.36-14.5-26.86-29.01-53.71-14.64-26.78-14.76-26.72Zm0,0l14.89,26.64,15,26.58,30.28,53.01,15.15,26.5,1.89,3.31c.61,1.01,1.59,2.79.97,4.75-.28.98-1.03,1.81-1.85,2.27-.82.47-1.67.66-2.47.72-.43.03-.74.03-1.05.03h-.95s-1.91.03-1.91.03l-15.26.16-30.52.2-30.52.07-30.52-.08-30.52-.21-7.63-.07-3.82-.05c-.77-.01-1.62-.12-2.46-.47-.83-.34-1.71-.99-2.19-1.93-.49-.93-.56-1.98-.39-2.85.15-.86.54-1.66.88-2.24l1.89-3.31,3.79-6.63,15.15-26.5,30.27-53.01,15-26.58,7.44-13.32,3.72-6.66c.3-.56.63-1.11,1.09-1.56.45-.45,1.03-.8,1.67-.85.64-.07,1.28.17,1.77.57.5.4.89.92,1.2,1.47Z"/>
  </g>
</svg>